/* XPM */
static char *ad069b7b39c94dfbb57bc9f5320bc5db[] = {
/* columns rows colors chars-per-pixel */
"32 32 189 2 ",
"   c None",
".  c #2B2617",
"X  c #3C301B",
"o  c #4C391A",
"O  c #4B3B21",
"+  c #503E25",
"@  c #56401D",
"#  c #554323",
"$  c #584021",
"%  c #5B4924",
"&  c #594728",
"*  c #5B4A2A",
"=  c #664F26",
"-  c #614F2A",
";  c #655126",
":  c #65522B",
">  c #6C562B",
",  c #6D592E",
"<  c #70562C",
"1  c #735B2E",
"2  c #785F2D",
"3  c #6A5534",
"4  c #6B5A35",
"5  c #795730",
"6  c #725E31",
"7  c #7C5E34",
"8  c #7C5F38",
"9  c #746133",
"0  c #7A6433",
"q  c #7E6A35",
"w  c #74643D",
"e  c #87612F",
"r  c #816432",
"t  c #8A6334",
"y  c #836D36",
"u  c #856239",
"i  c #836B3C",
"p  c #896A39",
"a  c #906F3D",
"s  c #86713A",
"d  c #8B743B",
"f  c #94753E",
"g  c #937B3E",
"h  c #A3783A",
"j  c #846E47",
"k  c #8A6D42",
"l  c #847040",
"z  c #8B7444",
"x  c #8D7847",
"c  c #86734C",
"v  c #8A764A",
"b  c #8E7C4D",
"n  c #937644",
"m  c #937C42",
"M  c #9B7E43",
"N  c #91754B",
"B  c #967F4A",
"V  c #9B7D4C",
"C  c #9D7745",
"Z  c #937F54",
"A  c #A07F4B",
"S  c #A07D44",
"D  c #A8803B",
"F  c #968145",
"G  c #9D8344",
"H  c #978248",
"J  c #9C834A",
"K  c #9F8849",
"L  c #978356",
"P  c #9B8653",
"I  c #9C8953",
"U  c #9C885D",
"Y  c #A28345",
"T  c #A48A46",
"R  c #AA8B46",
"E  c #A3854B",
"W  c #A9844D",
"Q  c #A58C4B",
"!  c #AA8D4C",
"~  c #B0864E",
"^  c #B28C4E",
"/  c #AC914B",
"(  c #B3944D",
")  c #BC934C",
"_  c #B59C4E",
"`  c #BC9A4E",
"'  c #A28755",
"]  c #AB8654",
"[  c #A48B52",
"{  c #AB8C52",
"}  c #A58D5A",
"|  c #AA8D5A",
" . c #B48D54",
".. c #BA8F51",
"X. c #A79256",
"o. c #AA9355",
"O. c #AF9853",
"+. c #A19059",
"@. c #AD9359",
"#. c #AE9A5B",
"$. c #B49553",
"%. c #BB9553",
"&. c #B49A54",
"*. c #BB9C53",
"=. c #B39B5D",
"-. c #BB9B5A",
";. c #B9945D",
":. c #BFA157",
">. c #B7A15E",
",. c #BDA45C",
"<. c #BEAE5C",
"1. c #A59363",
"2. c #A89764",
"3. c #AE9B61",
"4. c #B69760",
"5. c #B49C63",
"6. c #B89E66",
"7. c #B49E68",
"8. c #B6A562",
"9. c #BDA563",
"0. c #B8A860",
"q. c #B5A46B",
"w. c #BBAB6D",
"e. c #C09845",
"r. c #C49C4F",
"t. c #C49E55",
"y. c #C39E5A",
"u. c #C4A253",
"i. c #CCA455",
"p. c #C3A45B",
"a. c #C9A65B",
"s. c #C3AB5E",
"d. c #CDAA5B",
"f. c #CBA955",
"g. c #D1AB5D",
"h. c #CFB05E",
"j. c #CDB95F",
"k. c #CFB355",
"l. c #E3BF59",
"z. c #C29F60",
"x. c #C3A663",
"c. c #CAA561",
"v. c #C3AB64",
"b. c #CAAA65",
"n. c #C3AB6B",
"m. c #CAA96C",
"M. c #D2AC62",
"N. c #CCB263",
"B. c #CFB863",
"V. c #C6B36A",
"C. c #CBB36A",
"Z. c #CDBC6F",
"A. c #C5B164",
"S. c #D4B465",
"D. c #D9B666",
"F. c #DBBB65",
"G. c #D5BB6A",
"H. c #D5B869",
"J. c #C6B774",
"K. c #CFB474",
"L. c #C7B678",
"P. c #D0BD73",
"I. c #E1B962",
"U. c #E5C259",
"Y. c #DBC46B",
"T. c #D5C06C",
"R. c #D8C675",
"E. c #DCC974",
"W. c #D7C97A",
"Q. c #DACB7C",
"!. c #E4C46E",
"~. c #E3CC69",
"^. c #E3D56A",
"/. c #EACD72",
"(. c #EDD474",
"). c #EDD972",
"_. c #E1D47D",
"`. c #E9E177",
"'. c #DACF80",
"]. c #D6C584",
"[. c #DAD096",
"{. c #F2EB85",
"}. c #F0E695",
"|. c #F3EA92",
" X c #F3ED98",
".X c #F7F39D",
"XX c #FBFA9E",
"oX c #E9E2A0",
"OX c #F4F1C5",
/* pixels */
"                                                                ",
"                        k W $.*.y.x.J L                         ",
"                  j E g.F.g.%.g.B.p.c.F.y.b c                   ",
"              8 o.*./.v.Y 5 t 7 t u C R d.H.$.B                 ",
"            V V g.!.F.*.u h ) i.r.) ! &.t W H.p.I +.            ",
"          E [ -.!.).f t ( Y.k.).~.F.E.w.Q.S.n.F.a.5.            ",
"        B ] ^ I.(.d.C ,. Xh.{..X X}.W.>.w.x s.E.F.*.3.          ",
"        J n t.a./.N.o.8.Z._.|.E.T.:.Q N.j.D B.Y.F.K.E           ",
"      [ } ~ ' ' C.[ L.V.J.0.m x K G B A.&._ S.p.K.7.Y v         ",
"      &.@.V ] ;.;.E U 8.Q.=.n.x 0 J g <.<.<.{ p.n a.g.5.        ",
"    &.{ A  .| c.M. .W P z Z.d x i 9 9 0 1 , $.p.&.} n.-.2.      ",
"    >.[ r.;.N ' a.[ K o.Q M 0 { K 0 1 7 0 d.Q.&.y.4.2.%.w.      ",
"    C.x t.'  .a.d.*.M k u , p k : q K 0.&.F.<.-.y.E -.d.1.      ",
"    N.} y.} L $.u.*.G A.=.: H F q q Q Y.U.Y.( V.p.C.t.p.J       ",
"    C.=.p.^ E $.&.( g 4 x ! > y d q 0 y `.^.I M $.3.#.&.G.      ",
"    $.[ x.] ,.*./ / f B l g ( d q q 9 s F &.S *.( B i.a.N.      ",
"    $.x ( X.z $.T T G > 1 y s q 9 9 q 0 t j Y _ ( 5.p.,.H.      ",
"    $.X.t...t.%.T G D :.( F q s 9 : , q T 7 R ( &.I B 7 p.      ",
"    E [ y.L q.5./ G G :._ / d s s > @ > G Q ( / ( o.%.u.;.      ",
"    d V p. .[  .:.G K / Q O.:.y g d ; o % g ( / -.[ $.` J       ",
"      J | { ;.w.#./ _ ^.P.B.<.Q g s 2 D / T / b.S G M y.J       ",
"      M b  .N v Q _ U.XXoX<.b.,.d y f / G ( ` n.$.*.t.9.i       ",
"        ! [ p.k *.v._.OX].O.,.G.k.y ( / ( $.=.J 4.O.F.J         ",
"        J B x.u.*.( d 4 >./ s.|.).` / ` ( q.w.Y G f.9.#         ",
"          v.P m.:.*.( r 9 #.[ [.W.R ( a.9.k I o.u.p.4           ",
"          9 E 1.c.u.u.` y @ > - & 0 ( ^ v [ Y u.x.w             ",
"            4 G U x.i.u.u.r.T ( ! = Y G k E g.x.:               ",
"                G z 1.m.i.g.i.i.u.` n $.i.l.x.i                 ",
"                  3 n L U 6.b.S.g.S.H.D.x.l w                   ",
"                    . X * + O & 3 w $ $ 3                       ",
"                              . .                               ",
"                                                                "
};
