/* XPM */
static char *_b831a10ccfd4b62b5f74e51d8279dac[] = {
/* columns rows colors chars-per-pixel */
"16 16 15 1 ",
"  c None",
". c #7FBC3F",
"X c #348C43",
"o c #358D43",
"O c #378F43",
"+ c #388F43",
"@ c #398F43",
"# c #419542",
"$ c #61A941",
"% c #86C03F",
"& c #92C83E",
"* c #92C93E",
"= c #93C93E",
"- c #95CA3E",
"; c #97CB3E",
/* pixels */
"                ",
"       OO       ",
"      OXOO      ",
"      XOXX      ",
"     #OOOOO     ",
"     &    X     ",
"    &&-&&-+     ",
"    &&&&&&$     ",
"    &&& &&.     ",
"    &&&&&&%     ",
"     &&&&&      ",
"     &&&&&      ",
"     &&&&&      ",
"      &&        ",
"                ",
"                "
};
