/* XPM */
static char *e3e93fef70294700cb1575bd1ac9f827[] = {
/* columns rows colors chars-per-pixel */
"64 64 249 2 ",
"   c None",
".  c #060202",
"X  c #120904",
"o  c #1C1504",
"O  c #372308",
"+  c #362B18",
"@  c #3D311B",
"#  c #2B2512",
"$  c #3C3323",
"%  c #26180C",
"&  c #492A09",
"*  c #472F13",
"=  c #43341A",
"-  c #4B3A1C",
";  c #4A3519",
":  c #513D1C",
">  c #513418",
",  c #513600",
"<  c #483923",
"1  c #5C3F2B",
"2  c #56411D",
"3  c #6B481A",
"4  c #544323",
"5  c #5D4A23",
"6  c #5B4727",
"7  c #5C4D30",
"8  c #5E512B",
"9  c #624D25",
"0  c #634D2A",
"q  c #694A27",
"w  c #655127",
"e  c #65532B",
"r  c #6B542B",
"t  c #6C582C",
"y  c #735D2E",
"u  c #79572C",
"i  c #645333",
"p  c #6C5B32",
"a  c #695638",
"s  c #735B33",
"d  c #745D3B",
"f  c #7A5B35",
"g  c #6B4C2C",
"h  c #75612E",
"j  c #7B622E",
"k  c #796021",
"l  c #756233",
"z  c #7B6534",
"x  c #7D6A35",
"c  c #7C643B",
"v  c #7B673B",
"b  c #6E613A",
"n  c #745F42",
"m  c #7A6745",
"M  c #7F7041",
"N  c #855C33",
"B  c #836C35",
"V  c #83633A",
"C  c #836C3B",
"Z  c #8C6C3B",
"A  c #896735",
"S  c #956C39",
"D  c #85723B",
"F  c #8B743C",
"G  c #8D793E",
"H  c #887236",
"J  c #93743C",
"K  c #947B3E",
"L  c #9B793C",
"P  c #8A672D",
"I  c #A7793A",
"U  c #A1732E",
"Y  c #834F1E",
"T  c #856D43",
"R  c #8C6E42",
"E  c #876848",
"W  c #916F41",
"Q  c #8C7343",
"!  c #8C7A44",
"~  c #8A794B",
"^  c #867448",
"/  c #947444",
"(  c #9A7542",
")  c #957C43",
"_  c #9C7C45",
"`  c #927C4B",
"'  c #9B7D4B",
"]  c #94744A",
"[  c #887654",
"{  c #947A52",
"}  c #A17E46",
"|  c #A47C48",
" . c #AA7D4B",
".. c #9A803E",
"X. c #A8823D",
"o. c #C6903D",
"O. c #9C8343",
"+. c #95834D",
"@. c #9C834B",
"#. c #978346",
"$. c #9D8351",
"%. c #9C8A54",
"&. c #968758",
"*. c #9C9359",
"=. c #8D8353",
"-. c #A38444",
";. c #A48A46",
":. c #AB8B45",
">. c #A3844B",
",. c #AB854B",
"<. c #A38B4B",
"1. c #AB8C4B",
"2. c #AC8745",
"3. c #B38D4C",
"4. c #B58A45",
"5. c #AD924C",
"6. c #A8944E",
"7. c #B3944D",
"8. c #BA954D",
"9. c #B5994E",
"0. c #BB9B4E",
"q. c #BA9345",
"w. c #A58352",
"e. c #A38B53",
"r. c #AC8C53",
"t. c #A48B5B",
"y. c #AC8E5A",
"u. c #A88656",
"i. c #B48C52",
"p. c #B78E57",
"a. c #AC9454",
"s. c #A5935C",
"d. c #AB945B",
"f. c #AA9854",
"g. c #B39453",
"h. c #BA9553",
"j. c #B59A54",
"k. c #BB9B54",
"l. c #B59659",
"z. c #BB9459",
"x. c #B49C5B",
"c. c #BC9C5B",
"v. c #BEA14F",
"b. c #BDA254",
"n. c #B5A25C",
"m. c #BBA35B",
"M. c #B9A658",
"N. c #9A8C64",
"B. c #9C9166",
"V. c #AB9562",
"C. c #AC9C63",
"Z. c #A69866",
"A. c #B49C64",
"S. c #B89C62",
"D. c #A69A71",
"F. c #A48F62",
"G. c #ADA267",
"H. c #B2A262",
"J. c #BCA463",
"K. c #BCA963",
"L. c #BCAB6B",
"P. c #B6A56B",
"I. c #B5A573",
"U. c #BEB175",
"Y. c #B7AD6D",
"T. c #C49749",
"R. c #C29C54",
"E. c #C39D5B",
"W. c #C69A58",
"Q. c #C08F4D",
"!. c #C4A253",
"~. c #CAA455",
"^. c #C3A35B",
"/. c #CBA55A",
"(. c #C5AA5D",
"). c #CDAB5C",
"_. c #CBAA56",
"`. c #D4AB55",
"'. c #D2AC5C",
"]. c #D2A85B",
"[. c #C9B35E",
"{. c #D5B25C",
"}. c #DBB75B",
"|. c #D7A34E",
" X c #E5B959",
".X c #C4A463",
"XX c #C4AC64",
"oX c #CCAB64",
"OX c #C3AC6A",
"+X c #C9AB6A",
"@X c #D2AC62",
"#X c #D4A661",
"$X c #C4B363",
"%X c #CDB363",
"&X c #C4B36C",
"*X c #CCB56B",
"=X c #CCBC6E",
"-X c #CBBB66",
";X c #D3B363",
":X c #DBB564",
">X c #D4BB65",
",X c #DCBB65",
"<X c #D3B46B",
"1X c #D3BC6B",
"2X c #DBBD6B",
"3X c #DCB768",
"4X c #C3A874",
"5X c #C4B474",
"6X c #CBBA77",
"7X c #D2BB77",
"8X c #E2BB66",
"9X c #E4BD68",
"0X c #E8C45C",
"qX c #F2D155",
"wX c #D5C26D",
"eX c #DBC26C",
"rX c #DECA6B",
"tX c #D5C373",
"yX c #DAC877",
"uX c #DDD179",
"iX c #CDC271",
"pX c #E3C36B",
"aX c #E6C769",
"sX c #E7D46D",
"dX c #E5CD73",
"fX c #E7C973",
"gX c #ECD272",
"hX c #E1D37C",
"jX c #E9DA76",
"kX c #F3D875",
"lX c #F0D766",
"zX c #F5E976",
"xX c #F5EB77",
"cX c #BBB385",
"vX c #C5BD83",
"bX c #D6C886",
"nX c #DDD488",
"mX c #D5CC91",
"MX c #E6DA84",
"NX c #E5D68C",
"BX c #EDE489",
"VX c #F5EA82",
"CX c #F9F697",
"ZX c #F3EE91",
"AX c #D4CDA9",
"SX c #FAF8A5",
"DX c #FCFAB7",
"FX c #EDE6AB",
"GX c #FBFBC7",
/* pixels */
"                                                                                                                                ",
"                                                                                                                                ",
"                                                  0 f Z J ) O.,.>.z.c.c./ d a                                                   ",
"                                          T V Z ,.i./.8X{.:XeXfXfXgX,X'./.c.l.J.$.d m                                           ",
"                                  & Q d T g.oX].8XpX:X).3.^.'.>XeX>X%Xc.<X].pX:XR.l.@.n [                                       ",
"                                  & ~ d V g.).].8XpX8XoX3./.'.3XwX-XoXJ.<XoXpX:XR.l.` n [                                       ",
"                              > >.x.$.a.^.pXgX;X^.;X1.3 Y ( S P u P _ w.$. .[.pXpX9X/.l.^ m t.                                  ",
"                            0 ( >.~ ;.8XfXgX%X3.3.Z g V Z Z u A S u u W { Z P X.h.).,XfX).z.M &.&.                              ",
"                        0 T R @.-./.3XfXkXaX(.XXR u g V P I T.| 2.T.I S  .S.U q A (  .^.9X2Xx.@.s.H.                            ",
"                      b e. .u.] ].fXfX8X'.8.g.a.N J o.X.i. X|.>XW.T.0Xo.J j.rXXXY N | S E.2XfXk.f s.L.                          ",
"                    9 g.@.r.] E.9XdXkXfX1.u N g g S aXsX . XqX{.pX0Xo.`.^.!.,.uXMX*XT. .J.eX1XfX)._ s.d.                        ",
"                    r.>.x.] R.:X2XgXgXgX| I ( ,.rX'.dX).X.zXCXsX2XzXzXwXnXZXnXd.nX=XhX$Xy.1XeX,X8X).' 5XZ.                      ",
"                  @.e./ / W.8X8XfXkXgX0.N W I MXSXZXu.{.zXZXCXSXZXSXSXSX7XMXyXn.A.5XH.l / dXfXwXeX,X~.P <.~                     ",
"                F l.j.j.,.{.:X8XgXkX3XS c.,.@.=XZXhX;XZXSXBXBXCXSXBXhX1XyXm.H e.P.@.u l r.dXyXrXeX,X;XR.K.I.                    ",
"              6 n.Z / W W.^.W.@XfXkXh.wX^.y.A.=XK.hXjXBXCXZXhXyXyX%Xm.j.7...O.yXK.`.X.P c.eXwXeX8X,X*X7X,.$.D.                  ",
"              s.e.x.( i.>.] ` +X@XfX1.hXt.u.Z } XXn.K.tXtX$Xm.m.k.m.j.<.<.#.wXjXuXsX_.U ).2XeXeXrX].4XD.y.' B.                  ",
"              s.%.n.( i.w.] { OX;XfX,.hXt.u.Z | XXn.K.wXtX$Xm.b.b.m.j.<.<.) wXjXrXsXv.S /.2X2XyXdX#X4XD.y._ B.                  ",
"            6.a.Z d.3.i.A.m ] V.J.2X' d.bXP.J.nX=X5XH.f.F h l ) #.<.<.B y <.-Xn.#.[.[.P /.3X^.x.bX6XI.u.] 3.C {                 ",
"            n.%.tX@.i.' $. .+Xu.$.2Xl.s 6XP.*XtXuXFXL.B ) $.$.` H D z j K ) ;.j.j.iXzX9.j.(.%X<.M &.d./.^./.3.vX                ",
"          f.(.( ` ( u.T E #X/.E c <Xc.V v %.+.s.1XtXd.m.uX*X+.e e l @.XXO.F M.uXK.M.M.! } c.[.!.r._ W.{.'.;Xh.~                 ",
"          m.g.} V i.' oXy.z.#XW.W.;XE.I A R V ` e.@.5XBX6.` e.] ` D D G D x ! h k 2 2 - _ j.!.oX^.S.4XE.W.@X{.a.m.              ",
"        <.m.' *X' p.p.] { V.+XW.3X@Xc.S y.oXJ.` 9 T wX7.F 0 s L z s e 5 e e w Q ! r y O..Xl.b.h.!.' d *.U.4Xl.g.cX              ",
"        x.XX@.V | ].W.S.W { Z.d.z.@Xc.V t.K.*Xx.i.Q 5.) F s z h.x.T s l s 5 r t u J k.{.BXc.j.m.(.R.i.| Z.H.>.E.V.B.            ",
"        n.K.x.V./.W.y.u.' E R ,.'.).m.>.5 v z ! j.) x B f f w.S.f.! F x B F L Z w / ).2XMXtXg.x.c.i.y.6XI.^ c./.&XbX            ",
"        L.m.%.c '.R.E ' u.W.W.:X'.).k.7.Z V f s f i r p q 3.) p 6 e z D B n.%X,.J [.fX{.v.tXz.k.^.k.>.R -./.;X^.A.C.            ",
"      &.XXj.r._ ).i.S.S.S.E.E.E.!.(.!.k.4.7.1.y.r.F 4 t F l.-.z p e z H O.M.jX[.I eXdX0...b.m.k.M.^.h.W.'.'.'./.w.[             ",
"      *.*Xa.s.u.#Xl.C.~ %.+.r.c.!.!.k.j.J <.=XtX&Xl.r 4 ) e.<.F H z x x ;.*.$XjX0X0XsX_.2.8.MX3.!.b.yX+X8.W.W.R.k.s             ",
"      *.*X1.F.u.oXa.C.~ %.+.s.h.^.!.k.j.J <.=X=XXXg.g 4 ) %.%.F B x x B <.6.[.sX0XqXsX!.2.8.nX7.!.k.7X+X8.R.W.R.^.s             ",
"      *.tXg.^ _ /.>.` m c i C j.!.k.v.5.K z %.*.+.) >.h 2 i p D G D x l x x D M.jXxXxXrX&X&XL.;.b.9.bXbXXXyX;XJ.[.$XG.          ",
"      *.*XJ.yXl.^.].].h.3.h.h.^.b.7.9.9.;.( 1 i c G.m.-.Z 5 h K G F D H x t t G rXVXxXv.D d s 3.k.1.` ` T +.#.@.,XXXI.          ",
"      ~ ^.} c | h.%Xi.E.3.4.h.j.5.5.5.5.;.J r.@.a.! z :.k.5.L H D x B x t e t #.XXM.-X{.Z _ 7.k.k.g.z Z k.!._.R.).[.'           ",
"      ~ m.r.K.z.| nXE w.7XOXE.j.6.;.;.:.O.z C ` ! 8 F K ;.6.G B x D x x h D D x r 5 D 5./ 2.k.k.7.7.a.g.!.E.!.)._.wX6X          ",
"      ^ x._ +.i.q.Z.7XXXd %.m.k.6.;.;.;.O.G 2 O - 9 x B x G D l l z z z x x x l r s d 0 u 1.9.7.7.5.H.l.i.c.).^.).b.f           ",
"      p a.g.v ] `.A 9 J i.Z Q j.;.O.O...;.:.O.Z H K ..j z G H l t t p h x x j h J >.A @.2.7.9.7.9.7.5XA.S.iXH.d.;XjXA.          ",
"        g.c.&Xx.R./.W.W.].W.8.h.5.O.O.K ;.:.0.!.0.9.6.H h x F D h t w w e h z D O.( u 9 J 9.7.9.k.5.e.C.A.p 6 y ).l.=.          ",
"        @.1.^ $./.3.y.r.^./..Xb.5.X.K ....5.k._.9.;.#...x l H G B p w 9 w r t B <.c.w.} h.0.5.5.7.h.d.v z i.| L ).OXa           ",
"        ^ 5.a.x.'.1.&.&.Z.5X&Xc.7.;.O.O.#.;.k.k.f.j.6.7.O.l x F H B t 9 2 5 w w B x.n.O.q.7.5.7.8.5.d.a.h.!.R.~.W.G.[           ",
"        D i.a.x.'.1.&.&.Z.5XU.x.j.;...#...:.k.b.j.a.f.5.O.h B G F x t 5 4 5 w w x f.n.I 8.7.1.5.g.7.x.a.8.!.~.~.R.G.^           ",
"        l a.F A W.^.' V E &.W 2.v.5.;...O.5.j.<.6.f.j.M.j.O.l K ..K D h 2 2 2 2 2 5 p K 7.6.:.5.j.3.N Q g.T.R.R.E.Q ^           ",
"          @.R l.<XW.W.p.C.| 4.p./.9.@...K 5.5.#.#.6.6.v.b.m.C x H K ..H h 2 * + : r Z 7.7.5.6.g.j.&XOX@.j.h.0.h.R Q Q           ",
"          ! @.B R ~.h.{ w.Q.6XvX&X/.5.O.;.9.!.b.a.J.b.[.^.m.5.B F ) O.B x j N ) O.:.9.5.;.7.q.2.#.! T c B B R.2XJ._             ",
"          = 5.F F.OX^.W  .7XL.+.*.x.7.1.7.{.lXVXMXbX-X1X(.(.b.O.B O.) h r j q.q.5.;.....5.0.<XtX| 7.8.8.7.3.!.,.v R             ",
"            C h.r d i.i.D.{ p s.{ _ f.5.`.0XxXSXSX7X%X%X-X).b.6.F H G x 2 J 0.:.#...;.7.7.8.NXt.2.T.q.0.8.!.#X.X( l             ",
"            o j.>.F.4X,.f d ` m ,.b.7.). XlXSXDXDXnXM.M.M.%X>X(.X.B B j L 9.7.;.O.;.5.k.R.3.=Xd.,.A.+X8.0.`.I.+.V               ",
"              z /.y T E.{.j.T | h.5.g.hXsXVXGXGXFX7Xj.6.j.m.1XwX>X..h u q.9.6.:.6.q.0.E.tX[ G J.i.F.&Xj.).8X8.0 i               ",
"              X a.h.Q s.W.h.C <.b.7.1.H.I.cXAXAX7Xa.<.n.n.$X3XNXBX}...X.7.9.5.5.9.h.z.{ .X{ s B P.V.v 8.}.6Xa.s                 ",
"                a c.,.a S.@X^.(.b.j.b.>.P 3 , k n.n.<.a.j.>XMXCXVXlX`.q.q.5.7.R.q.l.L.F.J.5X} ) P H q.eXfXz -                   ",
"                  #.eX:.&.A./.0.0.j.k.b.k.,.p - v n.$X6.j.XXBXDXCX}.X.X.:.5.q.;XOXw.s.Z.5X&X8.k.!.~.{.;XL.b                     ",
"                  #.eX<.&.A.W.k.j.9.k.!.R.<.t > z n.L.5.j.XXNXSXCX}.X.L 7.:.8.;XOXw.s.C.&X&Xj.k.!.!.{.;XL.b                     ",
"                  = x.>XL Z.6X/.!.k.k.j.0.2.J r ; ^ H.6.@.f.bXAXnXwXXXI j.9.k.XX&X.X] f ~ @.1.7.k.`.3Xa.i 4                     ",
"                    8 j.J.m Z.4X/.!.k.R.!.!.8...w * e l D ! ~ ! C ^ %.X.R.8.h.7.+.! K.w.R g L k.'.W.n.D 6                       ",
"                      7 $.,.] I.OX/.!.R.!._.0.0.5.Z & + : 4 2 * = < - y 4.5.7.<.s.a b e.,.h.R.>X+XC.0 -                         ",
"                        6 +.@.9 N.bX+X~.!.!.R.R.T.!.R.J w 2 q A B 6 * = L j.1.J v ] V s ,./.}.%X$.e <                           ",
"                          = ` ).J t F.6X`._.~.R.!.~.~.~.]._.].:X{./.L : t k.3.Q i >.k.{. X@XOX&.5 +                             ",
"                            % v j.a.z [ A.4X#X#X_._._.~.]._.~._.~.!.'.<.9 l.k.;.,.'.`.aX3XbXQ r -                               ",
"                                . T ) A f N.D.U..X].{.:X`.'.~._.!.R.0.!.8.F q.'. X X}.@X+./ / T                                 ",
"                                  . @ ! 1.Z z B.N.I.4XE.<X3X3X:X{.}.'.pXpX,XpX8XeXXX%.0 d ~                                     ",
"                                      . + b Q C a i [ [ { e.t.l.l.h.a.P.a.t.*.N.[ a 0 6 =                                       ",
"                                          X X @ 6 4 ; = O = < 6 0 7 i n * > ; * 0 d                                             ",
"                                          X . @ 7 : ; @ O = < 4 7 7 i a * > ; & 0 b                                             ",
"                                                # # < $ $ + + + $ # @ < = < =                                                   ",
"                                                                                                                                ",
"                                                                                                                                ",
"                                                                                                                                "
};
