/* XPM */
static char *_36fa3a15d6a442580bb1daf22163e6c[] = {
/* columns rows colors chars-per-pixel */
"32 32 13 1 ",
"  c None",
". c #318A43",
"X c #318B43",
"o c #338C43",
"O c #348C43",
"+ c #348D43",
"@ c #358D43",
"# c #92C83E",
"$ c #92C93E",
"% c #93C93E",
"& c #95CA3E",
"* c #96CA3E",
"= c #99CD3E",
/* pixels */
"                                ",
"                                ",
"                                ",
"             @@@@@              ",
"            @@@@@@@             ",
"             @@@@@@@            ",
"             @@@@@@@            ",
"           @ @@+@@@@@           ",
"           @ @@+@@@@@           ",
"         # .+@++ .@@@@          ",
"         ##        @@@          ",
"         ##* =* ##  @@          ",
"         ###### ###  @          ",
"         ### ## #### @          ",
"         ###### #### +@         ",
"        #####  ###### @         ",
"         ####    #### @         ",
"         ###     ####           ",
"         ############           ",
"         ###### #####           ",
"         #### # #####           ",
"         #### #######           ",
"          ##########            ",
"          ##########            ",
"          #### #####            ",
"           ########             ",
"            ###                 ",
"             ###                ",
"               #                ",
"                                ",
"                                ",
"                                "
};
