/* XPM */
static char *dc5e9593c36c4e6cebafcfedd4632521[] = {
/* columns rows colors chars-per-pixel */
"128 128 13 1 ",
"  c None",
". c #358D42",
"X c #358D43",
"o c #368D43",
"O c #358E43",
"+ c #358D44",
"@ c #91C73E",
"# c #92C73E",
"$ c #93C73E",
"% c #92C83D",
"& c #92C83E",
"* c #92C93E",
"= c #92C83F",
/* pixels */
"                                                                                                                                ",
"                                                                                                                                ",
"                                                                                                                                ",
"                                                                                                                                ",
"                                                                                                                                ",
"                                                                                                                                ",
"                                                                                                                                ",
"                                                                                                                                ",
"                                                                                                                                ",
"                                                                                                                                ",
"                                                                                                                                ",
"                                                                                                                                ",
"                                                                                                                                ",
"                                                                                                                                ",
"                                                                                                                                ",
"                                                                                                                                ",
"                                                                                                                                ",
"                                                                                                                                ",
"                                                                                                                                ",
"                                                                                                                                ",
"                                                                                                                                ",
"                                                                                                                                ",
"                                                                                                                                ",
"                                                                                                                                ",
"                                                                                                                                ",
"                                                                                                                                ",
"                                                                                                                                ",
"                                                                                                                                ",
"                                                                                                                                ",
"                                                                                                                                ",
"                                                                                                                                ",
"                                                              XXOOO                                                             ",
"                                                           XXXXXXXXXXX                                                          ",
"                                                          XXXXXXXXXXXXXX                                                        ",
"                                                        XXXXXXXXXXXXXXXXX                                                       ",
"                                                       XXXXXXXXXXXXXXXXXXX                                                      ",
"                                                        XXXXXXXXXXXXXXXXXXX                                                     ",
"                                                         XXXXXXXXXXXXXXXXXXX                                                    ",
"                                                          XXXXXXXXXXXXXXXXXX                                                    ",
"                                                          XXXXXXXXXXXXXXXXXXX                                                   ",
"                                                      X   XXXXXXXXXXXXXXXXXXXX                                                  ",
"                                                     XXX  XXXXXXXXXXXXXXXXXXXX                                                  ",
"                                                     XXX  XXXXXXXXXXXXXXXXXXXXX                                                 ",
"                                                  &  XXX  XXXXXXXXXXXXXXXXXXXXX                                                 ",
"                                                 &&  XX  OOOXXXXXXXXXXXXXXXXXXXX                                                ",
"                                                 &&  XX XXOOXXXXXXXXXXXXXXXXXXXX                                                ",
"                                                 &&  XXXXX+XXXXXXXXXXXXXXXXXXXXX                                                ",
"                                                &&&&  XXXXXXXXXXX      XXXXXXXXXX                                               ",
"                                                &&&&   XXXXXX            XXXXXXXX                                               ",
"                                                &&&&&                     XXXXXXX                                               ",
"                                                &&&&&&           &&&&      XXXXXX                                               ",
"                                               &&&&&&&&&   &&&&&&&&&&&&&    XXXXXX                                              ",
"                                               &&&&&&&&&&&&&&&&& &&&&&&&&    XXXXX                                              ",
"                                               &&&&&&&&&&&&&&&&& &&&&&&&&&    XXXX                                              ",
"                                               &&&&&&&&&& &&&&&  &&&&&&&&&&   XXXX                                              ",
"                                               &&&&&&&&&& &&&&&  &&&&&&&&&&&   XXX                                              ",
"                                               &&&&&&&&&&  &&&   &&&&&&&&&&&   XXX                                              ",
"                                               &&&&&&&&&&  &&& & &&&&&&&&&&&&  XXXX                                             ",
"                                               &&&&&&&&&& & && & &&&&&&&&&&&&   XXX                                             ",
"                                              &&&&&&&&&&& & &    &&&&&&&&&&&&&  XXX                                             ",
"                                              &&&&&&&&&&& & & & &&&&&&&&&&&&&&  XXX                                             ",
"                                              &&&&&&&&&&&&    & &&&&&&&&&&&&&&   XX                                             ",
"                                               &&&&&&&&&&& &  @ $@   &&&&&&&&&&  XX                                             ",
"                                               &&&&&&&&&&& &   &     &&&&&&&&&&  XX                                             ",
"                                               &&&&&&&    &  $    &  &&&&&&&&&&  XX                                             ",
"                                               &&&&&&&       &  &&  &&&&&&&&&&&  X                                              ",
"                                               &&&&&&&&  &  && &   &&&&&&&&&&&&  X                                              ",
"                                               &&&&&&&&&   &&&   &&&&&&&&&&&&&&  X                                              ",
"                                               &&&&&&&&&&&&&&&  &&&&&&&&&&&&&&&  X                                              ",
"                                               &&&&&&&&&&&&& &   &&&&&&&&&&&&&&  X                                              ",
"                                                &&&&&&&&&&&& & &  &&&&&&&&&&&&&                                                 ",
"                                                &&&&&&&&&&&& && & &&&&&&&&&&&&&                                                 ",
"                                                &&&&&&&&&&&  &&&   &&&&&&&&&&&&                                                 ",
"                                                &&&&&&&&&&&  &&&&  &&&&&&&&&&&&                                                 ",
"                                                &&&&&&&&&&&  &&&&&&&&&&&&&&&&&                                                  ",
"                                                 &&&&&&&&&&  &&&&&&&&&&&&&&&&&                                                  ",
"                                                 &&&&&&&&&&& &&&&&&&&&&&&&&&&&                                                  ",
"                                                  &&&&&&&&&& &&&&&&&&&&&&&&&&                                                   ",
"                                                  &&&&&&&&&& &&&&&&&&&&&&&&&&                                                   ",
"                                                  &&&&&&&&&&  &&&&&&&&&&&&&&&                                                   ",
"                                                   &&&&&&&&&  &&&&&&&&&&&&&&                                                    ",
"                                                    &&&&&&&&& &&&&&&&&&&&&&                                                     ",
"                                                    &&&&&&&&&  &&&&&&&&&&&&                                                     ",
"                                                     &&&&&&&&&  &&&&&&&&&&                                                      ",
"                                                      &&&&&&&&   &&&&&&&                                                        ",
"                                                      &&&&&&&&&   &&&&&                                                         ",
"                                                       &&&&&&&&&                                                                ",
"                                                         &&&&&&&&                                                               ",
"                                                          &&&&&&&&&                                                             ",
"                                                            &&&&&&&&&                                                           ",
"                                                               &&&&                                                             ",
"                                                                                                                                ",
"                                                                                                                                ",
"                                                                                                                                ",
"                                                                                                                                ",
"                                                                                                                                ",
"                                                                                                                                ",
"                                                                                                                                ",
"                                                                                                                                ",
"                                                                                                                                ",
"                                                                                                                                ",
"                                                                                                                                ",
"                                                                                                                                ",
"                                                                                                                                ",
"                                                                                                                                ",
"                                                                                                                                ",
"                                                                                                                                ",
"                                                                                                                                ",
"                                                                                                                                ",
"                                                                                                                                ",
"                                                                                                                                ",
"                                                                                                                                ",
"                                                                                                                                ",
"                                                                                                                                ",
"                                                                                                                                ",
"                                                                                                                                ",
"                                                                                                                                ",
"                                                                                                                                ",
"                                                                                                                                ",
"                                                                                                                                ",
"                                                                                                                                ",
"                                                                                                                                ",
"                                                                                                                                ",
"                                                                                                                                ",
"                                                                                                                                ",
"                                                                                                                                ",
"                                                                                                                                ",
"                                                                                                                                "
};
