/* XPM */
static char *_83d38c8add147e982f5c2cab3cfb844[] = {
/* columns rows colors chars-per-pixel */
"16 16 166 2 ",
"   c None",
".  c #0E0406",
"X  c #26180C",
"o  c #513600",
"O  c #4D3415",
"+  c #48371D",
"@  c #4D351C",
"#  c #4C3B25",
"$  c #54401F",
"%  c #5C412E",
"&  c #5E512B",
"*  c #644D27",
"=  c #655327",
"-  c #63542B",
";  c #6C512B",
":  c #69562B",
">  c #6D5A2E",
",  c #73592C",
"<  c #735E2F",
"1  c #675234",
"2  c #625437",
"3  c #6C5E30",
"4  c #6E5935",
"5  c #7E5E37",
"6  c #79642F",
"7  c #776431",
"8  c #7F6233",
"9  c #786134",
"0  c #7C6334",
"q  c #7E6735",
"w  c #7E6736",
"e  c #7C6833",
"r  c #7F693D",
"t  c #816C37",
"y  c #846038",
"u  c #876039",
"i  c #836E3A",
"p  c #887137",
"a  c #87743B",
"s  c #8D7239",
"d  c #8D7B3D",
"f  c #9A7038",
"g  c #977D3F",
"h  c #8C7243",
"j  c #8F7345",
"k  c #83724C",
"l  c #957940",
"z  c #957B45",
"x  c #9B7846",
"c  c #9F7C45",
"v  c #907348",
"b  c #907F4A",
"n  c #9B7E48",
"m  c #A07E47",
"M  c #C6903F",
"N  c #9B8242",
"B  c #9E8046",
"V  c #9E8946",
"C  c #9E8049",
"Z  c #9F854B",
"A  c #99844F",
"S  c #918653",
"D  c #978B52",
"F  c #9C8853",
"G  c #A38944",
"H  c #A28945",
"J  c #AB8846",
"K  c #AA874E",
"L  c #A38D49",
"P  c #A18D4B",
"I  c #A38C4A",
"U  c #A68F49",
"Y  c #AD894A",
"T  c #A98F48",
"R  c #AE8B4C",
"E  c #B6894E",
"W  c #AB9149",
"Q  c #BF9344",
"!  c #B59349",
"~  c #B2964B",
"^  c #B2934C",
"/  c #B1974F",
"(  c #BB954A",
")  c #B9924C",
"_  c #BA974C",
"`  c #B9994C",
"'  c #BD9B4E",
"]  c #A18A54",
"[  c #A98D56",
"{  c #AA8E58",
"}  c #B68950",
"|  c #B58E52",
" . c #AF9550",
".. c #A4935E",
"X. c #A6975D",
"o. c #B59055",
"O. c #B99253",
"+. c #BA9450",
"@. c #B29852",
"#. c #B79B53",
"$. c #B19C53",
"%. c #B89A52",
"&. c #BC9A53",
"*. c #BB9854",
"=. c #BB9B55",
"-. c #BC9E54",
";. c #BE9F55",
":. c #BD9F56",
">. c #B49658",
",. c #B69F5E",
"<. c #BD9D5B",
"1. c #BA9E5F",
"2. c #B3A05E",
"3. c #BFA558",
"4. c #B9A35C",
"5. c #B9A65F",
"6. c #A19260",
"7. c #A79764",
"8. c #AC9E63",
"9. c #A7986A",
"0. c #A19570",
"q. c #BDA764",
"w. c #BCA76B",
"e. c #BDAB6B",
"r. c #C8974A",
"t. c #C39755",
"y. c #C39E51",
"u. c #C59B57",
"i. c #C89B56",
"p. c #CBA554",
"a. c #CBA857",
"s. c #CFAB55",
"d. c #C6A25F",
"f. c #C8A559",
"g. c #CCA75D",
"h. c #D7AB56",
"j. c #D7AF59",
"k. c #D5AA5F",
"l. c #D0AD5E",
"z. c #CFB45F",
"x. c #D1A561",
"c. c #D2A966",
"v. c #C3B461",
"b. c #C9B463",
"n. c #CDB164",
"m. c #C8BA66",
"M. c #C7B76A",
"N. c #C3B36E",
"B. c #C8BB6F",
"V. c #CDBD6E",
"C. c #D2B169",
"Z. c #F2D755",
"A. c #D9C26B",
"S. c #DCC76E",
"D. c #D5C079",
"F. c #E8C762",
"G. c #EAD370",
"H. c #EBD072",
"J. c #E2D47E",
"K. c #F1D674",
"L. c #F2E876",
"P. c #F7EC76",
"I. c #E1D087",
"U. c #E3D787",
"Y. c #E5DC80",
"T. c #EEDE89",
/* pixels */
"            5 B 1.1             ",
"        F H.Y f m z.g.6.        ",
"    * v K.y F.Z.M K r.A.X.      ",
"    z d.O.2.Y.J.4.V Q S.C.0.    ",
"  5.E x.>.B.e.A 6 P L.n.{ R     ",
"  C u.7.<.M. .8 < : &.@.| Z     ",
"  ..8.[ ;.V.; P e v.G.U.D.i.    ",
"  r o.*.W [ w g t > m.) w a.n   ",
"  N.t.O.N ' P a = 8 , ~ ] # D   ",
"  s x h H %.$.7 p $ > T y p.k   ",
"  i } 4 ~ P.b.3.d ` G I.( x.    ",
"    J f.3.o L T.j.^ w.c ! #     ",
"    & 9.3.( - b D *.q.l 4.      ",
"      X 9 c.s.p.l.%.h.h         ",
"          . @ # 2 O             ",
"                                "
};
