/* XPM */
static char *fe4a2579db2b4147fcb7baba4d00fff6[] = {
/* columns rows colors chars-per-pixel */
"64 64 6 1 ",
"  c None",
". c #358D43",
"X c #92C73E",
"o c #92C83E",
"O c #93C93E",
"+ c #94C93E",
/* pixels */
"                                                                ",
"                                                                ",
"                                                                ",
"                                                                ",
"                                                                ",
"                                                                ",
"                                                                ",
"                                                                ",
"                                                                ",
"                                                                ",
"                                                                ",
"                                                                ",
"                                                                ",
"                                                                ",
"                                                                ",
"                                .                               ",
"                             .......                            ",
"                            .........                           ",
"                            ..........                          ",
"                             .........                          ",
"                           . ..........                         ",
"                          .. ...........                        ",
"                          . ............                        ",
"                        oo ...... ......                        ",
"                        oo           ....                       ",
"                        ooo    oooo   ...                       ",
"                        oooooooo oooo  ..                       ",
"                       oooooooo  ooooo ..                       ",
"                       ooooo oo oooooo  .                       ",
"                       oooooo o ooooooo .                       ",
"                       ooooooo  ooooooo .                       ",
"                       oooooo   o ooooo .                       ",
"                       oooo o o   ooooo                         ",
"                       ooooo oo ooooooo+                        ",
"                        ooooooo ooooooo+                        ",
"                        oooooooo oooooo                         ",
"                        ooooooooooooooo                         ",
"                        ooooooooooooooo                         ",
"                         oooooooooooooo                         ",
"                         ooooo ooooooo                          ",
"                          oooo ooooooo                          ",
"                          ooooo ooooo                           ",
"                           oooo  ooo                            ",
"                            oooo                                ",
"                             ooooo                              ",
"                                                                ",
"                                                                ",
"                                                                ",
"                                                                ",
"                                                                ",
"                                                                ",
"                                                                ",
"                                                                ",
"                                                                ",
"                                                                ",
"                                                                ",
"                                                                ",
"                                                                ",
"                                                                ",
"                                                                ",
"                                                                ",
"                                                                ",
"                                                                ",
"                                                                "
};
